<?xml version="1.0" standalone="no"?>
<!DOCTYPE svg PUBLIC "-//W3C//DTD SVG 20010904//EN"
 "http://www.w3.org/TR/2001/REC-SVG-20010904/DTD/svg10.dtd">
<svg version="1.0" xmlns="http://www.w3.org/2000/svg"
 width="640.000000pt" height="640.000000pt" viewBox="0 0 640.000000 640.000000"
 preserveAspectRatio="xMidYMid meet">

<g transform="translate(0.000000,640.000000) scale(0.100000,-0.100000)"
fill="#000000" stroke="none">
<path d="M5102 5795 c-12 -9 -74 -90 -138 -180 l-117 -165 -214 0 -215 0 -29
-29 c-22 -22 -29 -39 -29 -68 0 -33 16 -60 125 -205 l124 -168 -64 -189 c-36
-105 -65 -200 -65 -212 0 -48 51 -99 100 -99 10 0 104 29 209 65 l192 64 167
-124 c143 -107 172 -125 204 -125 28 0 46 8 70 29 l33 30 -3 214 -3 213 164
116 c90 64 169 123 176 132 7 8 15 33 18 54 4 33 1 44 -23 70 -25 26 -57 40
-214 88 -102 31 -190 61 -196 68 -6 6 -37 96 -69 199 -49 158 -63 192 -88 213
-33 28 -82 32 -115 9z m58 -445 c21 -69 42 -119 56 -134 15 -14 65 -35 134
-56 61 -18 113 -37 116 -41 2 -4 -39 -37 -91 -74 -52 -36 -103 -78 -112 -92
-14 -22 -17 -47 -15 -155 3 -105 1 -128 -10 -122 -7 4 -49 35 -93 67 -127 95
-124 94 -267 48 -67 -22 -123 -39 -125 -37 -2 1 15 56 37 121 48 144 48 144
-50 275 -39 52 -70 95 -70 97 0 2 58 3 128 1 107 -2 133 1 154 14 14 9 56 60
93 112 37 53 71 94 75 91 3 -2 22 -54 40 -115z"/>
<path d="M1404 4800 c-25 -10 -49 -40 -184 -232 l-103 -148 -234 0 -235 0 -29
-29 c-31 -32 -38 -75 -17 -114 6 -12 64 -92 128 -177 64 -85 120 -161 124
-168 4 -7 -24 -107 -65 -232 l-73 -219 17 -36 c12 -24 29 -41 54 -51 36 -15
39 -15 253 58 l217 74 183 -135 c162 -120 188 -136 223 -136 31 0 45 7 68 33
l29 32 0 233 1 232 168 118 c93 65 179 129 192 143 33 35 32 95 -2 129 -23 24
-154 71 -395 142 -58 18 -45 -10 -135 278 -40 129 -56 165 -80 188 -30 28 -65
33 -105 17z m55 -477 c29 -94 48 -137 64 -150 13 -10 83 -36 155 -57 73 -22
132 -42 132 -45 -1 -3 -53 -42 -116 -86 -64 -44 -121 -86 -127 -94 -8 -9 -14
-71 -17 -168 l-5 -154 -115 86 c-85 63 -123 85 -145 85 -17 0 -91 -20 -164
-45 -76 -25 -131 -39 -128 -32 44 119 89 278 84 298 -5 20 -108 169 -170 247
-9 11 15 13 139 10 127 -2 154 0 175 14 15 9 61 67 104 128 43 61 81 107 85
103 4 -4 26 -67 49 -140z"/>
<path d="M2977 4649 c-9 -5 -24 -24 -33 -41 -46 -89 57 -183 143 -129 84 53
47 181 -51 181 -22 0 -49 -5 -59 -11z"/>
<path d="M4560 3513 c-105 -41 -77 -193 35 -193 124 0 137 180 14 195 -19 2
-41 2 -49 -2z"/>
<path d="M989 2762 c-26 -24 -32 -36 -32 -72 0 -36 6 -48 32 -72 43 -38 90
-38 133 1 27 24 33 36 33 71 0 35 -6 47 -33 71 -43 39 -90 39 -133 1z"/>
<path d="M1598 2500 c-14 -11 -97 -121 -184 -245 l-159 -225 -301 0 -301 0
-26 -24 c-30 -28 -42 -65 -33 -100 3 -13 81 -125 172 -247 91 -123 168 -229
170 -235 3 -5 -36 -130 -86 -276 -49 -146 -90 -275 -90 -286 0 -52 48 -102 97
-102 10 0 140 41 288 90 149 50 275 88 282 86 7 -3 102 -73 212 -156 273 -205
275 -206 336 -178 52 24 55 42 55 360 l0 293 225 159 c124 87 234 170 245 184
29 36 26 85 -7 121 -23 24 -60 40 -193 81 -91 28 -213 67 -272 86 l-108 36
-54 171 c-30 95 -69 218 -86 274 -37 119 -63 153 -120 153 -22 0 -48 -8 -62
-20z m88 -522 c38 -122 67 -198 80 -212 14 -13 90 -42 213 -80 106 -33 194
-63 197 -67 2 -4 -70 -60 -161 -124 -90 -64 -171 -126 -180 -138 -12 -18 -15
-60 -15 -239 l0 -218 -167 125 c-92 69 -178 129 -193 132 -17 4 -86 -14 -224
-60 -110 -37 -201 -65 -203 -63 -2 2 26 93 63 202 47 139 66 207 61 224 -3 15
-63 101 -132 193 l-125 167 219 0 c200 0 220 2 242 19 13 11 76 93 139 184 63
90 118 160 121 155 4 -6 33 -95 65 -200z"/>
<path d="M4074 2141 c-29 -13 -65 -57 -184 -229 l-105 -151 -232 -1 -231 0
-30 -25 c-34 -29 -47 -70 -33 -106 5 -13 67 -102 138 -198 l129 -173 -74 -218
c-72 -214 -73 -218 -58 -253 10 -25 27 -43 51 -54 l36 -17 219 73 c125 41 225
69 232 65 7 -4 83 -60 168 -124 85 -64 165 -122 177 -128 31 -17 75 -15 102 4
47 34 53 67 45 297 l-7 212 181 128 c100 71 188 138 197 150 8 12 15 37 15 55
0 59 -38 84 -206 137 -82 26 -176 56 -210 68 l-60 21 -45 140 c-82 260 -93
289 -119 307 -32 23 -69 31 -96 20z m47 -478 c21 -69 46 -134 55 -144 10 -11
75 -38 148 -60 72 -23 135 -45 139 -49 4 -4 -43 -43 -105 -87 -62 -44 -120
-88 -128 -98 -12 -15 -14 -47 -12 -172 2 -84 1 -153 -1 -153 -2 0 -55 38 -117
85 -63 47 -126 89 -139 92 -20 5 -180 -40 -298 -84 -7 -3 7 52 32 128 25 73
45 147 45 164 0 24 -21 59 -86 146 l-85 114 148 5 c81 3 156 9 166 14 10 5 50
54 89 110 87 124 101 141 106 126 2 -6 21 -67 43 -137z"/>
</g>
</svg>
